<svg xmlns="http://www.w3.org/2000/svg" viewBox="19.2 2.2 40.8 60.7"><style>.water { pointer-events: none; fill: #3ec8f9; } .regions { filter: url(#out1); } .region { fill: #16795c; cursor: pointer; } .region:hover, .region.is-active { fill: #22ac7e; } .city { cursor: pointer; } .city-body { fill: url(#g1); filter: url(#in); } .city:hover .city-body, .city.is-active .city-body { fill: #8c1211; filter: none; } .city-border { fill: #fff; filter: url(#out2); } .borders { fill: none; stroke: #ddebd9; stroke-width: 0.2; }</style><defs><filter id="out1"><feOffset in="SourceAlpha" dx="0" dy=".5" result="o1"/><feFlood flood-color="#5d492c"/><feComposite in2="o1" operator="in" result="o1"/><feOffset in="o1" dx="0" dy="-.1" result="o2"/><feOffset in="o1" dx="0" dy="-.3" result="o3"/><feMerge><feMergeNode in="o1"/><feMergeNode in="o2"/><feMergeNode in="o3"/><feMergeNode in="SourceGraphic"/></feMerge></filter><filter id="out2" width="140%" height="140%"><feGaussianBlur in="SourceAlpha" stdDeviation=".2" result="b"/><feOffset in="b" dx="0" dy=".2" result="o"/><feComposite in2="o" operator="in"/><feMerge><feMergeNode/><feMergeNode in="SourceGraphic"/></feMerge></filter><linearGradient id="g1" x1="0" y1="0" x2="0" y2="100%"><stop offset="0%" stop-color="#ff5f5e"/><stop offset="100%" stop-color="#e33636"/></linearGradient><filter id="in"><feOffset dx="0" dy=".3" in="SourceGraphic"/><feGaussianBlur stdDeviation=".1" result="b"/><feComposite operator="out" in="SourceGraphic" result="m"/><feFlood flood-color="#000" flood-opacity=".5"/><feComposite operator="in" in2="m"/><feBlend mode="normal" in2="SourceGraphic"/></filter></defs><g class="regions"><g class="region" data-id="3800"><path d="M36.6 9.58c-.4.1-1.05-.88-1.4-.17-.2.4-.38.56-.73.82-.38.28-.18.72-.37 1.07-.46.83 1.37.9.23 1.44-.34.2-.34.2-.6.3-.34.1-.04.8-.04.85-.05.32-.43.4-.63.64-.2.25-.85.02-1.45.1-1.05.1-2.2.37-3.28.24-.66-.08-1.16.27-1.8.26-.44 0-.48.1-.72.37-.25.27-.4.18-.45.43-.05.24-1.86.8-1.9-.14-.02-.5.1-.72.5-1.07.05-.1-.2-.26-.24-.36-.15-.37.1-.52.1-.83-.24-.84-.38-1.42-.37-2.26 0-.12.4-.25.25-.43-.12-.14-.38-.14-.52-.3-.23-.76-.12-1.4.4-1.22-.92 0-1.84-1.9-1.2-2.52-.56-.13.16-.9.27-1.28 0-.22.55-.96.5-1-.4-.37-.02-.65.33-.65.58 0 1.16.1 1.76.07 1.16-.03 2.53 0 3.67.13.62.07 1.23.04 1.84 0 .63 0 1.73-.23 2.3.02.3.12.95-.14 1.28-.1.3.02.05-.28.43-.27h1.18c.1.16-.1.52-.16 1.03 0 .2.22.25-.1.67-.17.22-.26.18-.27.4 0 .3-.7.42-.72.93 0 .56.14.8.67 1.15.7.45.4.5.48.74.1.06.2.12.27.2.13-.13.28-.28.46-.08.08.1.24.72.04.82 0 0 .12-.05 0 0z"/></g><g class="region" data-id="3786"><path d="M47.63 2.64c-.2 1.02 1.5-.3 1.52.8.02.73.06.48-.34.88-.06.3-.15.64-.2.94-.03.38-.13.35-.22.65-.15.1-.16.26-.14.42.04.35-.55.58-.9.6-.36.04-.7.2-1.06.25-.52.07-.24.1-.52.2-.16.08-.34.2-.52.26-.38.14-.4-.14-.66-.15-.1.06-.16.86-.47.65 0 0-.55.08-.66.04-.42-.04-.68.36-.82.28-.37-.2 0-.22.02-.55 0-.12-.15-.6-.2-.65-.15-.02-.35.03-.5.02-.27-.02-.1.38-.36.46-.4.1-.4.4-.63.7-.06.1-.37.5-.52.36-.14-.15.07-.32.17-.4-.55 0-1.05-.14-1.62.1-.45.2-.4.6-.83.73-.6.2.16.92-.4 1.17-.24-.32-.57-.16-.86-.4-.33-.42-.1-.57-.27-1.07-.1-.32-.33-.27-.52-.08l-.33-.35c.16-.34-.33-.52-.54-.66-.22-.2-.3-.17-.42-.27-.04-.04-.12-.8-.12-.84.1-.54.37-.4.65-.72.2-.2-.13-.33.17-.43.32-.1.33-.44.3-.7-.05-.32-.1-.75.23-1 .3.3 1.27.13 1.68.14.84.05 1.23-.05 2.06-.06.17 0 .74-.03.8.18.04.2.36.17.44.05.1-.03.46-.4.56-.22.12.24 1.18-.03 1.43.07 0 0 .3.8.36.8.3 0 .12-.96.55-.64.25-.3.7-.32 1.04-.52-.14-.84.78-1.03.7-.35.17-.36.44-.27.78-.5-.04-.03-.18-.18-.14-.25.38-.25.78-.06 1.35.1"/></g><g class="region" data-id="3739"><path d="M49.9 48.8c-.05.1.05.2.2.24l.18.1c.15.18.6.07.83 0 .1.02.24-.03.34.02.1.06.12.22.2.28l.12.66c0 .12.02.23.06.35l.44-.44c.2-.07.4-.1.62-.08.48.06 1 .26 1.26.36.1.04.18.1.24.2.15.3.12.62.4.83v-.06l.1.1-.02.04c-.05.23 1 .24.23.77.8-.04 2.3.2 2.72-.7.24-.5.24-.94.6-1.46.32-.48.77-.8 1.32-1 .04-.13 0-.33 0-.47-.2 0-.4 0-.6-.02-.43-.03-.35-.18-.57-.52-.17-.27-.34-.26-.46-.6-.23-.7-.48-.13-1-.42-.44-.63-1.08-.62-1.44-1.27-.17-.3-.35-.53-.02-.84.13-.36-.34-.3-.52-.3-.03-.32-.17-.07-.25-.22 0-.23-.2-.23-.13-.52.02-.1.07-.3.06-.4-.04-.25.02-.46-.34-.4-.2-.18-.43-.1-.35-.45.06 0 .1.05.14.07-.07-.23-.27-.24-.48-.28-.03-.26.48-.88.1-1.02s-.22-.25 0-.44c.1-.1.5-.14.53-.26.05-.5-.02-.3.1-.66.05-.13-.1-.2-.12-.34-.04-.25.3-.63.34-.9.1-.5.12-.86.13-1.37 0-.4-.72-.3-.95-.28-.23-.2-.16-.46-.4-.6.16-.3-.06-1.04.27-1.23.16-.1.45-.1.4-.3-.03-.18 0-1 .36-.67.17-.52-.12-.9.06-1.46-.1-.1-.22-.9-.23-1.06-.02-.33-.07-.7-.07-1.08 0-.3.3-.6.06-.84-.17-.18.17-.35.26-.43.44-.44 1.1-.36.87-1.12-.13-.43-.53-.52-.63-1.05-.05-.28-1.15-.96-1.18-.93-.2.15-1.53-1.5-1.17-1.75-.52-.02-1.4-.27-1.85-.05-.12.06.03.53-.26.7-.28.15 0 .92 0 .92l-.27-.05-.35.57.26.53-.17.2c-.1.02-.1.1-.07.2l-.08.28.28.16s.4-.1.58-.1c.2-.02.4.1.4.1l.14.43-.35.08-.03.06s-.02 0-.03.02h.02l-.32.8h-.52c-.05-.48-1.32-1.08-1.74-.92-.16.06-.34.15-.5.27l-.12.05-.02.1c-.13.14-.2.3-.13.48-.05.03-.1.03-.17 0-.02.03 0 .08 0 .13l-.17.14-.44-.13s-.9-.03-.93.06l-.44.68s.22.02.76.18c.54.17 1.5 1.38 1.5 1.38l.7 1.94.8.2.1.97.82 1.08.14.97.95.62-.05 2.14-.15 1.27-.6.93.02.42.54.5.08.5-.48.42-.5.76.08.5.4.13c.12.24.02-.05.2.37.05.15.32.3.35.45.06.26-.3 1.27-1.16 1.55 0 0 0 .03.02.04-.1.16.03.37.03.64 0 .07 0 .15.03.22 0 .1.04.2.08.33"/></g><g class="region" data-id="3765"><path d="M37.67 50.7c.37.3.58.2.8.68.26.57.3.6.9.62.38 0 .8.25 1.16.17.6-.14 1.16.35 1.74.22.47-.12 1.2-.23 1.67-.12.6.14.46.84.94 1.13.4.26.54.3.7.8.12.4.04.27-.15.5-.16.22-.54.3-.7.48-.14.14-.2.4-.4.53-.26.16-.66.1-.92.2-.1.04-.07.2-.22.25-.14.03-.25.04-.38.1-.54.2-.63.57-1.06.84-.48.3-1.26.2-1.8.2-.7-.02-1.15.25-1.76.6-.47.26-1.1.42-1.62.55-.58.15-1.27.2-1.87.4-.12-.47-.26-.98.62-1.52.23-.14.36-.2.55-.36.33-.26.07-.4-.23-.57-.5-.3-.54-.9-1-1.17-.56-.34-.02-.76-.05-1.02-.08-.74-.87-.5-1.26-.8-.3-.24-.54.15-.83.1-.32-.1.02-.84.04-1.2 0-.12.25-.34.12-.36-.44-.07-.1-.56-.34-.94-.28-.42-.5.07-1.02-.9-.22-.4-.8-.52-1.02-.88-.26-.47-1.23-.32-1.02-1.23.07-.3.4-.26.6-.4.45-.27.07-.46.7-.4.3.25.15.8-.02.86.1.12.14.85.28.8.2-.1.45.54.62.67.3.23 0 .07.68.2.3-.35.44.05.44.3.06 0 .47.23.55.24.15.02.28.26.34.28l.5.1c.22-.1.63-.05.84-.03.26-.32.8.52.44.44.22.3.5.3.42-.07.16 0 .58-.28.8-.3.25-.13.36.07.58.1.23.07.1.24.14.25.26-.17.24-.1.4-.04 0-.18.06-.14.1-.3"/></g><g class="region" data-id="3661"><path d="M20.7 58.28v-.15c.22 0 .34 0 .52.04.23-.25.73.28 1.1.17.2-.05-.23-.18.15-.25.03-.03.13-.1.28-.15.27-.08.58.1.86 0-.05.03.37.04.34.04.07-.23-.08-.22-.03-.45-.1-.2-.14-.23-.14-.45-.32-.3-.08-.57-.1-.83-.23-.48.25-.4.52-.34.05-.38-.22-.7-.27-1.07-.04-.33 0-.97-.1-1.24-.1-.24-.57-.26-.85-.5-.1.1-.43.4-.6.4-.48-.07-.3-.56-.26-.9-.7.02-.63-.07-.6-.7.04-.55 0-.78-.2-1.27-.2-.44-.57-3.1-1.2-2.95.2-.57-.3-1.73-.44-2.3-.15-.63-.3-1.05-.04-1.55.04-.16.35-.43.26-.57-.18-.3-.35-.47-.26-.86.15-.66.83-1.4 1.16-2h.03c.25 1.65 1.3.08 1.86 1.1.2.33.23.56.3.92.06.22.03 1.14.15 1.27.12.3.67.65 1 .74.25.06.64-.15.85.1.18.2 0 .43.32.52.42.12.54.5.7.9.1.24.74.4 1 .43 0 .1-.02.18-.05.27.6.14.6-.98.84-1.4.1-.18.27.4 1.05.17.1.47-.52 1.1.35 1.15.65.03.43.76.98.62 0 .54-1.64.44-.58 1.56.55.38 1.08.74 1.58 1.2.18.17.3.62.58.74.5.2.76.4.67.77-.07.32.06.42.26.45.2.03-.15.35-.13.5.02.22-.36.97 0 1.07.4.07.44-.33 1 0 .08.06.97.07 1.07.66.06.28-.32.22-.24.6.1.42.25.4.52.66.26.26.3.64.63.9.27.2.8.34.38.66-.72.56-1.47.7-1.18 1.88-.38.16-.38.16-.57.32-.18.15-.57.55-.8.65-.23.1-.1.2-.23.3l-.28.2c-.16.08-.65.27-.82.22-.12.16-.32.24-.45.33-.18.13-.33.4-.5.5-.27.15-.83.16-1.08.2-.16-.22-.23-.64-.68-.48-.08-.25-.24-.27-.43-.43-.2-.2-.3-.43-.5-.58-.5-.42-1.86-.58-2.5-.7-1.65-.32-3.56-.56-5.14-1.14"/></g><g class="region" data-id="3711"><path d="M51.1 38l-.05-.06-.02-.26-.56-.4-.45-.5-.17-.85-.74-.98-.2-1.08-.52-.07s-.3-.24-.57-1.2c-.24-.98-1.1-1.75-1.45-2-.36-.25-1.3-.34-1.67-.4-.36-.04-1.1-.73-1.1-.73l-1.12-.85-.58-.07h-.06c-.17-.15-.84.37-1.1.78-.36.54-.23.6-.88.83-.74.27.24.67-.2 1.27-.12.1-.3.5-.4.34-.05-.06-.06-.16-.15-.06-.15-.06-.3-.47-.37-.63-.28-.8-.57-1.68-.82-2.48-.17-.04-.53-.12-.55-.34.1-.17.22-.28.36-.4.03-.18.1-.4.1-.56.12-.3.58-.46.67-.74.06-.35-.08-.5-.1-.77h.02l-.02-.03v-.02c0-.15-.06-.2-.16-.23l-.07-.1-.56-.08-1.04-.73-.5-.08-.47.1-.22.4-.27.18-.4.17h-.95l-.18.42c-.08.05-.16.1-.28.14-.42.16-.55-.33-.95-.2-.43.15-.47.62-.5 1-.02.47-.27 1.2 0 1.62.15.23 1.5-.18 1.23.73-.24.78-.68.13-1.1.2-.5.07-.3.52-.68.77-.46.28-1.2.13-1.63.17-.38.04-.3-.45-.5-.54-.2-.08-.6-.45-.7-.6-.18-.23-.4-.38-.35-.78.02-.25-.07-.35-.17-.57-.1-.26-.07-.08-.3-.32-.27-.28-.1-.84-.43-1.05-.32-.2-.84-.9-.95-1.27-.06-.18-.33-.05-.42-.37 0 0-.3-.2-.34-.25.22.4.2 1.26.28 1.74.2 1.07.44 2.1.54 3.17.1.9-.95.33-1.12.94.03.67.6.73-.24.97-.36.1-.8.74-.9 1.1-.05-.16-.15-.25-.3-.3-.05.7-.35 1.26-.7 1.82-.2.34-.33.73-.5 1.1-.2.47-.02 1.05-.26 1.52-.2.38-.46 1.6-.24 1.96.25.4-.52.95-.58 1.47-.07.52-.87 0-.55.8.22.54.47.55.95.4.77-.24.97.82 1.08 1.28.1.4.1.52.1.95-.02.54.56.7.9 1 .2.18.28.07.53.04.55-.08.52.1.57.4.07.35.48.1.78.8.17.4.17.62.65.63.4 0 .65.36.28-.18.02-.4.54-.63.57-.97.03-.07.1-.53.1-.6-.05-.2-.23-.1-.23-.33 0-.13-.06-.2-.2-.2.06-.12.07-.25.06-.38 1.1.23.78-.33 1.14-1.04.07-.14.66-.3.2-.5-.34-.14-.7.1-1.17.05.3-.3.64-.57.67-1.03.02-.3.97-1.5 1.08-.8.05.32.78.05 1 .08.53.06.93-.38 1.22-.76.34-.46.9-.18.88-1.02-.5-.1-.52-.16-.9-.46-.37-.3-.3-.18-.73-.23-.1-.04-.33-.16-.4-.27-.14-.2-.34-.04-.55-.13.03-.23.14-.4.17-.6.06-.45.18-.24.5-.36.22.27.6-.17.9-.06.24.32.82-.23 1.14-.05.13.23-.02.5.12.74.18 0 .44.18.54.27.32.3.6-.1.88.13.38.28.4-.22.6-.46.18-.2.52-.13.74-.1-.03-.66-.3-.67.4-1.07.32-.2.73-1.3 1.2-.86.5.44-.06 1.36.84 1.42.3 0 .6 0 .86-.05.16-.03.5-.2.63-.16.44-.24.27-.64.87-.52.3.1.48.33.88.27.12-.23.57-.08.9.12.08.23.06-.08.2-.24.2.28.48-.28.76-.2.83.4.42 1.58 1.84 1.68.58.05.96.22 1.56.55.48.26.62.53.88.98.23.15.9.13 1.3.1l.02.02h.64c.02 0 .05.05.12-.02.05.03.17.06.3.07.24.08.5.2.5.2l.5-.2.22-.33.34.4.16-.92v-.18l.07-.06z"/></g><g class="region" data-id="3684"><path d="M53.22 21.22c-.07-.45.65-.5.35-.96-.28-.44 1.1-1.58.15-1.9-.1-.16-.14-.14-.26-.1 0-.58-.9-.5-1.33-.45-.2.1-.1.34-.36.48-.36.17-.6.23-.7-.22.32.18.85-.23.58-.53-.2-.17-.48.1-.53-.18.1-.13.4-.16.6-.18.2-.02.8.16.74-.27-.25-.24-.24-.22-.2-.5.02-.16-.1-.58-.16-.67-.2-.3-.08-.45 0-.8.12-.24.02-.96.24-1 .15-.04.23-.2.15-.32-.47-.76.13-.35.3-.84.13-.43-.47-.28-.58-.46v-.9c.1-.4.03-.82.28-1.05-.16-.12-.47.02-.67 0 .2-.25 0-.18-.04-.27-.1-.15-.22-.75-.36-.76-.3 0-.6 0-.76.18-.25-.12-.37-.68-.43-.92-.12-.47-.93-.8-1.32-1.04-.2-.08-.56-.12-.62-.38-.14-.65-.3-.53-.76-.3-.43.23-1.2.32-1.6.47-.06.13-.55.27-.7.33-.37.14-.4-.14-.65-.15-.12.07-.17.87-.48.66-.02 0-.67.1-.78.04-.32.05-.52.2-.7.27-.47 0 0-.22 0-.55.02-.12-.1-.54-.14-.6-.15-.02-.4-.02-.56-.03-.26-.03 0 .4-.44.46-.27.04-.2.4-.5.63-.07.05-.35.54-.5.4-.15-.16 0-.3.1-.38-.55 0-1.05-.15-1.62.1-.45.18-.4.58-.83.72-.6.2.16.92-.4 1.17-.27-.35-.78-.06-.94-.62-.03-.13-.8-.43-.98-.56-.54-.4-.65.38-1.02.7-.42.38-.6.5-.63 1.13-.04.6-.4.5.13.96.72.63.46.6-.2.85-.2.14-.3.17-.35.2-.13.05-.25.25-.13.53.25.62-.22.66-.4.86-.35.4-.5.2-1.07.17-.97.08-2.6.37-3.56.33-.47-.02-.58-.2-.98 0-.67.32-1.58.14-1.7.46-.1.2-.76.82-1.02.86-.32.06-.86-.1-1.08.1-.47.7.04.86.46 1.27.2.2.3.96.23 1.23-.12.48-.74.75.08 1.04.14.05-.42.6-.48.77-.12.3-.2.12-.36.3-.18.2.06.47-.1.73-.35.54.9.54 1.1.67-.1.2-.13.53.06.7.24.2.3.63.45.95-.5.6-.03.2.27.4.12.04.38.44.4.44.36.03.55.75.8.92.43.33.68.58.72 1.2.02.28.36.4.5.6.2.45.18.5.2.87 0 .42.37.5.5.77.06.17.34.3.5.36.2.08.2.22.28.44.1.28 1.9.26 2.04-.17.1-.35.3-.62.68-.62.25 0 .44.3.7.22.25-.1.32-.3.3-.58-.06-.42-.22-.45-.83-.4-.8.04-.37-1.33-.38-1.47 0-.24 0-.63.1-.92v-.02l.07-.13c.08-.1.22-.2.22-.2l.14-.02c.2.03.43.13.63.17.1.04.2.04.34-.03.04-.02.1-.06.13-.1h-.02l.05-.1.3-.37 1.27-.02.47-.7.8-.07 1.03.7.88.3.2.96-.2.25v.05c-.2.13-.4.27-.48.48-.05.14.05.47-.4.97.1.22.33.3.5.33l.4 1.2c.16.4.55 2.17 1.1 2.04 0 0 .16-.25.27-.5.05-.07.08-.14.1-.2 0-.04 0-.08-.02-.1 0-.07 0-.12-.03-.16-.16-.25-.1-.6-.1-.6.03 0 .06-.02.1-.04.37-.12.6-.35.8-.6.22-.24.37-.47.5-.63l.32-.3c.03 0 .07 0 .1-.02.02.02.02.02 0 0 .37-.1.88-.1.88-.1 1.08.58.93.86 1.7 1.32.64.38 1.26.4 1.3.4.07 0 .24-.53.26-.6.03-.05.5-.14.66-.17s.75.18.75.18l.22-.15.16-.14c0-.03.05-.4.25-.63.1-.06.17-.13.26-.17.54-.18.98 0 1.27.22l.33.3c.02 0 .03.02.04.03l.08.06.22.15s0 .02.04.02c.2.2.1.1.24.04l.1.04.05-.02c.13.02.2-.03.26-.1.08-.13.08-.32.07-.42l.03-.15.26-.22.25-.16-.25-.32h-.58l-.58-.1.02-.47.22-.15-.25-.46.22-.67.4-.04c0 .02 0 .02-.02.03v-.02h.04l-.03-.07V26l-.17-.4.42-.7-.08-.26.06-.03 1.46-.08c.14.02.28.04.4.04-.23-.3.14-.37.34-.22.02-.37.43.03.62-.52.52-.45-.15-1.1-.4-1.62-.2-.45.2-.64.16-.98z"/></g><g class="region" data-id="3634"><path d="M51.75 50.28v-.64c-.03-.12-.07-.2-.1-.28v-.03h-.03c-.18-.3-.36-.25-.63-.18l-.47.07-.45-.3c-.04-.04-.08-.1-.13-.13l-.12-.94v-.33l.7-.4.4-1.23-.36-.34s-.04-.25-.18-.38c-.13-.1-.34-.07-.42-.13-.16-.12.02-.68.07-.8s.67-.7.67-.7l.17-.4-.18-.38-.46-.22-.02-.6.6-.87v-.6l.03-.45.15-.5-.1-.35-.4-.15-.43.23h-.32l-.3-.15h-.16v-.05c-.44-.02-1.15.02-1.5 0-.5-.06-1.2-.24-1.6.22-.6.7-1.1.43-1.3.9-.27.02-1.36-.16-1.5.07-.47.67-.97 1.36-1.36 2.06-.4.73-1.47.28-1.73.85-.26.58.58.6.53 1.13-.02.3-.86 1.02-1.08 1.26-.36.38-.6.62-.9 1.08-.3.48-.14 1.24-.78 1.43-.06.07.2.16.06.43 0 .1.07.56.04.63-.2.03-.67.9-.53 1.15.4-.1.22.35.02.47.16.13.28.17.46.28.2.2.44.54.54.8.1.26.95.22 1.47.38.25.07.67-.08.94.02.3.1.68.18 1 .22.77.1 1.07-.4 2.25.06-.2-.42.34-.76.74-.6.16.06-.06.22.16.32.28.12.54.22.86.13.3-.1.3-.3.5-.45.23-.13.4.38.7.22.64-.34.2-.97 1.04-1.16.1-.13.16-.56.2-.73.07-.24.33.18.44.17.65-.44.73-.53 1.28 0 .12.13.76.83.86.76.46-.3.6-.43.63-.77h.02l-.05-.08z"/></g><g class="region" data-id="3617"><path d="M55.1 52.13c.14-.04.52-.18.3-.38.04.04.1.08 0 0-.08-.06-.05-.03 0 0-.17-.1-.34-.2-.52-.27l-.12-.13c-.16-.6-.44-1.18-1.45-1.37-.45-.1-1.1-.1-1.4.34-.28.4-.72 1.2-1.17.55-.2-.28-.35-.4-.63-.66-.34-.32-.54-.2-.92.05-.4.25-.52-.4-.7.2-.06.24 0 .47-.3.5-.46.02-.42.38-.54.7-.18.56-.5.48-.88.24-.18-.12-.33.5-1.18.43-.48-.04-.5-.45-.6-.5-.4-.16-.84.46-.7.73.66 1.17 1.4 1.32 1.36 1.88-.02.22.9-.06 1.13-.13.46-.13 1.02-.27 1.44-.56.27-.18.53-.2.8-.36.2-.12.26-.32.43-.44 1-.72 2.32-1.1 3.6-.92.65.1 1.35 0 2 .1"/></g><g class="region" data-id="3586"><path d="M46.73 38.6c0-.03-.02-.04 0 0z"/><path d="M38.18 49.1l-.04.02c0 .02.02.02.04 0z"/><path d="M46.73 38.6c.02.02.05.06 0 0-.43-.7-.93-.9-1.76-1.13-.88-.25-1.2.07-1.62-.94-.1-.25-.43-.78-.7-.8-.32 0-.5.53-.74.22-.12.16-.16.38-.25.15-.2-.07-.53-.2-.7-.14-.03.22-.8 0-.96-.1-.3-.16-.5 0-.6.15-.24.34-.54.34-.9.4-.07.13-.47.08-.63.1-1.03.18-.7-.63-1-1.23-.44-.87-.9.44-1.2.6-.78.43-.57.42-.54 1.15-.22-.03-.57-.1-.73.1-.2.25-.28.7-.66.43-.3-.22-.5.2-.83-.1-.1-.08-.36-.25-.53-.26-.13-.24 0-.52-.12-.75-.32-.18-.9.37-1.15.05-.3-.12-.66.32-.9.06-.3.12-.4-.17-.48.3-.03.2-.15.42-.18.65.35.16.42-.1.7.32.08.12.23.1.4.12.35-.1.3-.04.55.17.36.32.43.4.92.5.02.84-.54.56-.88 1.02-.28.38-.7.82-1.2.76-.24-.02-.97.24-1.02-.08-.1-.7-1.06.5-1.08.8-.04.46-.37.74-.67 1.03.4.04.76-.22 1.18-.04.45.18-.1.28-.18.42-.36.7-.06 1.33-1.17 1.1.05.3 0 .6.28.8.08.05.04.57 0 .66-.04.34-.55.62-.58 1 .15.2.23.24.14.6 1 .16.45-1.28.92-1.43.38-.12.36.4.74.2.45-.27.17.48.14.57-.14.4.05.54.44.55.63.03.5.65.7.65.16.1.64-.07.75.03.12.25.06.33.1.57.05.3-.25.07-.1.36.08.16.05.37.08.55.05.22.2.08.2.1.37-.03.16.57.44.6.17-.1.18.28.3.32.16-.36.4.1.53-.05.18-.2.4-.12.4.34.07-.02.48.22.56.23.14.02.27.26.33.28l.5.1c.22-.1.63-.05.84-.03.26-.32.8.52.44.44.22.3.5.3.42-.07.45-.04.58-.28.8-.3.25-.13.5.24.66.07.1.04 0 .26.06.27.26-.17.24-.1.4-.04 0-.16.66-.88.1-.76-.14-.23.3-1.02.5-1.13-.06-.1 0-.8.02-.72.05-.12 0-.22-.1-.3.1-.2.35-.12.46-.4.2-.5.25-.95.54-1.42.22-.35.6-.6.85-.87.18-.2.78-.9.78-.92.43-.37-.2-.67-.38-.92-.42-.6.56-.86.9-.82.8.1 1.52-1.8 2.16-2.52.22-.23 1.17.02 1.47-.07.12 0 .33-.32.56-.38.58-.14.86-.76 1.58-.84-.1-.1-.18-.2-.27-.34z"/></g></g><g class="water"><path d="M54.92 51.73c-.25-.42.14-1.04-.37-1.44-.53-.4-1.04-1-1.72-1.1-.56-.1-.5.74-1.27.06-.28-.25-1.25-.36-1.65-.48.16-.35-.08-.8-.1-1.13-.23-.36.1-.67.3-.94.26-.4.02-.68-.02-1.1-.02-.3.23-1.2.36-1.42.07.15.2.22.25.34.03-.03.88-.66.97-.66l.02.2c.06-.16.24-1.13.17-1.36-.07.1-.62 1.88-.7 1.05-.07-.67-.46-2.07.08-2.6.05.1.23.2.27.26.03-.15-.34-1.08-.15-1.12.03.04.03.1 0 .14.17-.13.23-.23.4-.34-.03-.05-.07-.07-.13-.07.12-.04.18-.13.17-.26-.1.07-.26.02-.4.12-.07-.27.2-.44-.06-.66.1 0 .3-.08.32-.1-.06-.1-.15-.1-.27-.05.07-.07.22-.23.24-.3-.06.03-.2.04-.26.05-.2-.63.46-.4.47-.7 0-.4-.7 0-.3-.64-.04 0-.1.03-.15.04.07-.23.14-.38.37-.38-.04-.12-.1-.22-.22-.28-.05-.1.58-1 .4-1.32-.14.18-.1.28-.23.45-.06 0-.1-.02-.1-.1.03.18-.44.63-.42.64l-.15-.22c.02.03.37-.32.14-.42-.23.07-.24.02-.4-.06-.05-.22.33-.2.4-.23l-.1-.33c.12.12.28.3.42.34.06-.13.1-.9-.14-.9.02-.17.05-.24.16-.33-.05-.04-.1-.04-.12-.12.1-.05.02-.02.15 0l-.02-.5c-.07.1-.13.1-.2 0 .06-.07.1-.2.14-.24-.27-.25-.52.02-.7-.34.23-.05.35-.08.54-.2-.1-.02-.2-.05-.28-.1.22-.15-.05.1.3-.05 0 0-.25-.1-.27-.12.1-.17.38-.33.25-.57-.5.2-.5 1.13-1 1.3-.02-.27.43-.92.22-1.07-.2.02-.4.12-.56.2.05-.52.38-.27-.34-.46.3-.1.63-.3.8-.47-.14-.16-.53-.3-.32-.6.17.15 1.3-.32 1.37-.5-.1-.16-.84.24-.85-.13-.15-.23.1-.58.3-.68-.07-.18-.6.02-.7-.13.13-.07.46-.18.55-.32-.1-.23.03-.43.2-.55-.08-.02-.28-.13-.28-.13.08-.06 1.2.24.94-.2l-.24.16c-.2.02-.02-.62-.26-.68-.36-.1-.97.32-1.27.02-.15-.23-.1-.4.12-.5.4-.07-.05-.46-.07-.6-.1-.8.74-.37.42-1.1-.03-.46.35-.77.28-1.23-.07-.44.14-.43.45-.5-.28.06-.03-1.2.18-1.45-.85.03-.34.9-.72 1.33-.5.6.03 1.7-.12 2.23 0 .02-1.54.46-.45 1.1-.33.4-.25 0-.28.6-.4.7 1.53-.2 1.3.57-.05.1-.34.05-.44.1-.08.04.1 1.02-.27.92l-.1-.18c-.28.07-.07.14-.34.05 0 .06.02.1.05.16-.36.03-.15 0-.23.12.43-.12.38.44.76.34-.14.5.36.92-.22 1.08-.2-.93-.57.43-.72-.26-.1.07-.33.25-.2.4.3.4.25.05.2.4 0 0 .37-.13.43-.13.34.26-.36.5-.52.55.07.23.2.18-.08.26.02.13.34.3.3.44-.1-.03-.2-.03-.3 0-.02.23.32.7.36 1.04-.1.1-.37-.15-.4-.23-.3.26-.13.1-.37.22 0 0 .2-.3.2-.33-.12.04-.54.4-.7.36-.05-.53-.43-1.2-.24-1.74-.07-.83-1.06-.66-1.45-1.08.13-.34-.34-.23-.34-.65-.25.07-.2.14-.46.08 0-.16 0-.4.05-.55.15.06 1.44.02 1.43.1l-.1-.33c-.22-.15-.5.28-.38-.22-.06.06-.14.1-.22.14-.2-.2-.3-.15-.6-.24-.18.4-.4.1-.72.12-.02 0 .15.57-.18.66-.15-.68-1.08.3-.9-.46-.3.94-.4-.7-.25-.52-.43.1-.86-.34-.94-.82-.04.03-.06.3-.12.27-.16-.06-.64-.4-.73-.56-.07-.08-.8-.98-.8-.95.1-.4 1.1-.7 1.14-.97-.07 0-.08.03-.13.03.03-.1.15-.47.1-.56-.22.1-.3.33-.3.54-.05 0-.4-.74-.8-.74.14-.07.84-.57.32-.77-.4.74-.37.64-.03 1.24.22.38-.63.92-.67.7-.07-.44-.46-.6-.76-.85-.42-.35-.2-.76-.43-1.18 0-.08-.16.05-.2-.14-.06-.18 0-.53 0-.72-.14.34-.02.72-.46.47-.3-.18-.43-.5-.56-.8-.48-.1.1-.72.23-.84.3-.28-.06-.92-.38-1.06-.18.22.17.93-.15 1.33-.04-.1-.06-.2-.08-.3-.6.9.76 1.16.7 1.83-.2.1-.6-.17-.75-.02-.04.43 2.15-.2 1.5 1.1-.56-.12-1.7.38-2.3-.04-.15-.1-.1-.26-.2-.36-.35-.24-.52-.48-.77-.96.06.2.18.68-.12.44-.16.2-.3.13-.53.15-.68.03-.35.97-1.15.9-.92-.1-.6.04-1.27.47.3.06.35-.34.56-.42.17-.06.76.46.9.16.6-.22 1.15-1.65 1.86-.7.68.88 1.78.4 1.77 1.8.6-.14-.35-.94.27-1.2.5-.23 1.35-.13 1.63.46.38.13.25.76.5.94.58.46.74 1.13 1.23 1.66-.06.1-.76.03-.9.15.08.05.5.03.6.02.53-.1.27.18.4.4.48 0 .17-.05.4.3.08.07.04-.12.2-.05l.8.55c-.3.24-.47.43-.94.5-.07.33-.45-.17-.6-.06-.27.12-.1.42.02.5.05-.05 1.1-.34 1.08-.37.18.2-.17.36-.18.52.47-.06 1.17-.4.92-.94.92.5-.05.9.03 1.6.15-.16 1.06-1.55 1.28-.72.34.23.46 0 .5.42.04.45-1.05.28-.88.66.16-.08.77-.4.83-.2.36-.23.2-.76.3-1.1.24.23 1 1.3 1.36 1.07.12.3-.37.35-.28.63.5-.46.23.13.45.27 0-.03-.1.38-.15.27-.02.16.32.32.4.2.27.4-.33.15-.4.24.2.38.44.1 0 .32.14.23.82 0 .86.14.02.33-.5.17-.66.14l-.13.5c-.23-.28-.54-.37-.94-.3.04.07.36.22.37.22-.33.02-.5.7-.93.44 0-.04-.57-.14-.7-.28-.04.25.1.25-.1.43-.2-.05-1.04.1-1.1.36-.14.47-1.05.03-1.14.52.46.5 1.6-1.04 1.87-.3.23-.3.33-.47.75-.5.18 0 .62.04.67.18.12-.05.72-.25.78-.35-.04-.07-.16-.04-.22-.06-.1.2 1.52-.1 1.46-.1l.34.2c-.05.06-.1.13-.13.2 0-.03.92.66 1 .75-.37-.02-.68 0-.93-.2 0 .1-.06.12-.05.23-.23-.03-.5-.1-.62-.28-.15.06-.1.06-.1.2-.18.16-.42-.05-.47-.2-.03.07-.05.13-.06.2-.1 0-.15-.07-.26-.02 0 .05.02.1.06.13-.03 0-.23.07-.3.06l.17.22s.7-.46.7-.1c.16.18.7.37.15.58.2.04.4-.24.5-.23.04.12.24.43.3.5.52-.25-.37-.56-.3-.84.35-.03.96.37 1.25.2.05.15 0 .22-.2.22.06.02.16.12.26.13-.02.08-.1.1-.2.1.33.2.78 1 .78 1.3.18.02.34-.03.36-.18.1.04.26.16.22.34 0 .2-.14.16-.18.4 0-.05-.02-.26-.12-.28-.1.2-.03.27.04.44 0 0-.17 0-.26-.05-.04.15-.1.35-.23.47-.02-.1-.12-.2-.15-.28-.13.4-.1.06-.3.04-.3.3-.28-.1-.34-.25-.17.02-.23.8.2.4l.07.36c.2-.1.4-.1.45.06.15.28-.22.16-.23.32.03.02.15.02.2.02 0 .1.24.6.38.38-.07.1-.36.1-.48.1.02.02.2.23.24.25-.07.02-.36-.03-.4-.04.1.24.36.28.63.3 0 .18-.02.3-.08.4-.15-.1-.45-.4-.68-.42.23.6-.36.4-.43.83.28-.07.5-.02.7-.03.03-.38.63-.04.35.2-.26-.1-.67.3-.72.44-.03 0-.2-.13-.22-.14-.02.06 0 .12.05.18-.44.02-.1-.42-.48-.43-.03.06-.02.12.04.17-.06.07-.1.2-.2.2 0 .04.1.14.13.17-.15-.02-.3.04-.46-.05-.1.22.25.16.33.26-.5.17.38.36.36.7-.05-.1-.1-.14-.18-.1-.1.34.2.7-.16.98-.28.22-1-.1-1.16-.36-.03-.34.3-.45 0-.66-.53-.28-.6.35-.94 0-.1.04-.16.1-.15.23-.2-.16-.38-.03-.5.16-.23-.4-.1-1.04-.25-1.5-.13.16-.2.36-.36.5-.03.08.36 1.03.04.87l-.16-.28c-.17.54-.42-.12-.6.05-.28-.3-.18-.84-.32-1.24-.2.2.02.75-.15.85-.06 0-.26-.1-.3-.12 0 .06 0 .1-.04.14-.2-.07-.4-.5-.5-.66.1.17-.62 0-.7 0 .05.2.95 1.2 1.1 1.3.53-.36 1.06.16 1.75.35.27.08.83.74 1.17.56.28.6 1.05.68 1.5.92.06.4.54.42.7.7.1.15-.06.9.26.9.04-.03.9-1.24.83-1.25.18-.34.23.6.18.74.02-.1 0-.15-.07-.13l.06.62c-.15.08-.27.18-.37.3.07.05.05-.03.12 0 .08.47-.16 1.44.26 1.68.74.4 1.47.23 2.18.77.37.28.68-.72 1-.26.24.3.9.4 1.17.72.6.65.47 1.3.77 2.07"/><path d="M58.12 49.98c-.25-.23-.03.1-.18-.23l-.25.1-.08-.34c-.25.13-.2.26-.14.47-.04.04-.47.2-.57.25-.25.17.2.2.23.36.03.28-.28.33-.14.64.05 0 .2-.15.22-.18.12.27-.34.7-.16.75.2.05.34-.23.45-.33.15-.14.7-1.4.62-1.5-.05-.04.02.03 0 0-.25-.22.02.03 0 0z"/><path d="M36.33 45.14c-.23-.3-.47.16-.44.44.28.46.52-.17.43-.44z"/></g><g class="borders"><path d="M45.33 30.26c.32-.16.13-.53.35-.67.03-.03.6-.1.7-.12.2-.05.54.37.75.12.15-.17.13-.1.27-.2-.1-.3.24-.72.56-.84.36-.13.56-.15.95 0 .4.18.64.7 1.02.8 1.25.36.25-.98 1.13-.85.28-.06 0-.62-.25-.6-.33.05-.83.28-1.05-.03.28-.4-.24-.3.28-.6.15-.17-.35-.28-.24-.6 0-.17.17-.6.34-.6.68.2.1-.16.1-.48-.02-.18.37-.64.44-.77.06-.1-.18-.1-.1-.2.3-.4 1.43-.1 1.92-.08"/><path d="M20.84 40.36c.04.04.04.07.04.1.2 1.66 1.25.05 1.8 1.05.2.35.23.58.3.94.06.22.03 1.14.15 1.27.1.3.66.65.98.74.27.06.66-.15.87.1.18.2 0 .43.32.52.4.12.53.5.7.9.08.24.7.4.97.43"/><path d="M37.67 50.7c-.05.16-.1.12-.12.3-.1-.04-.06-.22-.2 0-.5.2 0-.15-.3-.22-.08-.02-.52-.14-.62-.07-.26.03-.5.36-.78.26-.1.07-.02.7-.44.1.34.08-.08-.57-.34-.5-.27.07-.53.07-.85.08-.3 0-.5-.03-.85-.32-.1-.04-.6-.2-.6-.27-.03-.3-.14-.64-.44-.3-.15-.02-.17-.08-.36-.1-.32.2-.08.05-.4-.18-.2-.15-.16-.35-.3-.58-.03-.03-.07-.06-.25-.02-.15 0-.16-.36-.16-.54 0-.1-.04-.2-.1-.26 0-.22.22.04.17-.24-.08-.62.13-.63-.7-.6-.42.02-.2-.5-.6-.6-.3-.1-.77.02-.7-.45.02-.2.33-.6.1-.76-.15-.02-.27.03-.37.14-.1-.1-.34-.23-.48-.3-.5-.2-.12 1.57-1 1.4.08-.34 0-.37-.15-.58.02-.38.54-.66.58-1 .03-.07.1-.5.1-.57-.05-.2-.23-.08-.23-.32 0-.12-.06-.18-.2-.2.06-.1.07-.24.06-.37 1.12.23.82-.4 1.18-1.1.07-.14.64-.24.18-.43-.4-.18-.8.08-1.18.04.3-.3.64-.57.67-1.03.02-.28.97-1.5 1.08-.8.05.33.78.06 1 .1.53.05.93-.4 1.22-.77.34-.46.9-.18.88-1.02-.5-.08-.57-.17-.93-.48-.38-.3-.37-.16-.8-.2-.12-.05-.2-.13-.26-.24-.15-.2-.38-.07-.58-.16.03-.23.15-.46.18-.66.07-.46.18-.18.48-.3.23.28.6-.16.9-.05.25.33.83-.22 1.15-.04.13.23-.02.5.12.74.17 0 .43.18.53.27.32.3.54-.12.83.1.38.27.46-.2.66-.43.17-.2.5-.14.73-.1-.03-.67-.3-.68.4-1.08.32-.2.73-1.3 1.2-.86.5.44-.06 1.37.84 1.42.3.02.6-.04.86-.08.16-.03.48-.17.63-.12.43-.23.26-.63.86-.5.3.1.52.3.9.26.13-.23.6-.03.8.04.1.23.13 0 .26-.15.24.3.4-.23.74-.2.32 0 .64.67.75.97.3.83 1.26.6 1.96.9.9.37 1.14.52 1.6 1.36-.67.07-.65.25-1.12.65-.3.26-.75.1-.94.56-.22.03-1.38-.13-1.5.03l-.94 1.4c-.2.3-.53 1.1-.97 1.15-.4.05-1 0-1.2.4-.2.48.3.6.48.92.3.53-1.3 1.62-1.58 2-.2.3-.42.63-.52.96-.1.28-.07.7-.34.9-.42.3-.26-.02-.16.3 0-.04-.1 1.04 0 .88-.2.02-.68.9-.54 1.14.56-.15.05.34.03.43z"/><path d="M34.68 58.86c-.37-1.16.5-1.36 1.18-1.9.4-.3-.1-.44-.38-.65-.34-.25-.37-.64-.63-.9-.22-.2-.36-.2-.47-.5-.15-.43.23-.44.2-.7-.04-.4-.53-.7-.92-.68-.22 0-.3-.2-.5-.2-.22 0-.45.2-.66.17-.33-.1-.03-.67 0-.86.06-.25-.06-.37.18-.55.1-.28-.28-.1-.3-.35 0-.53.14-.8-.5-.97-.3-.1-.44-.45-.6-.67-.18-.25-.36-.4-.64-.53-.37-.17-.35-.52-.78-.66-.42-.13-.74-.43-.62-.9.1-.4.93-.26.9-.8"/><path d="M23.76 16.32c.3-.07 1.24.04 1.48-.2.35-.38.73-1 1.3-.98.4 0 .7-.12 1.06-.23.36-.1.67 0 1.04.02.6.03 1.4 0 2-.15.52-.12.96-.13 1.5-.17.2 0 .4.07.62.07.35 0 .4-.28.7-.42.48-.23-.02-.75.15-1.1.06-.12.45-.23.74-.42 1.2-.47-.7-.6-.23-1.44.18-.32.03-.66.27-.96.3-.36.6-.48.84-.93.36-.7 1.1.32 1.5.2"/><path d="M36 3.82c-.2.18-.23.8-.23.98.32.58-.36.63-.37 1.05 0 .32-.62.4-.68.72-.12.54 0 .94.4 1.2.2.12.43.32.67.5.1.06 0 .28.03.4.1.06.2.12.27.2.13-.13.28-.28.46-.08.15.16.12.46.1.68 0 .25.17.23.2.44 0 .2.73.3.88.5.5-.22.02-.64.2-1 .13-.27.46-.12.54-.43.08-.3.22-.36.5-.47.57-.25 1.06-.1 1.6-.1-.44.34.05.58.23.2.14-.14.56-.83.63-.87.15.04.3-.12.32-.26.02-.34.28-.13.53-.2.27-.06.3.36.3.5.22.15-.42.7 0 .68.2.12.48-.33.67-.3.12.04.82-.03.8-.1.27.44.46-.54.53-.57.25.02.27.3.66.16.25-.1.5-.25.68-.33.2-.08.62-.2.9-.24.48-.1.9-.4 1.33-.44"/><path d="M25.52 24.48c.28-.15.3.43.5.43.15 0 .4.37.42.52 0 .1.6.77.7.84.35.2.17.76.44 1.05s.57.6.52 1.06c-.04.42.6 1.06 1 1.22.2.1.17.66.55.62.3-.03.6.14.94-.02.18-.1.45 0 .64-.12.38-.25.22-.73.72-.8.42-.07.63.44 1.02.05.22-.22.1-.93-.33-.86-1.3.2-.85-.9-.8-1.75.02-.4.07-.85.5-1 .4-.13.5.37.9.2.38-.14.22-.23.4-.5.2-.26 1.07.06 1.44-.1.44-.2.08-.8.82-.8.33 0 .6.02.84.27.16.18.4.35.62.47.57.34.78-.14.97.54.15.5.25.7-.17 1.1-.25.23-.43.32-.42.7 0 .36-.3.38-.4.7.03.22.35.3.52.33l.4 1.2c.16.4.5 1.93.87 1.96.32.14.13.2.4-.2.2-.28.34-.4.1-.8-.37-.57.36-.56.64-.82.38-.36.6-1.12 1.2-1.3 1.2-.4 1.85.8 2.73 1.4.56.4 1.12.12 1.7.4.46.2 1.2.8 1.47 1.23.4.64.5 1.36.8 2 .17.33.72.03.8.34.1.3-.05.82.18 1.07.26.28.6.63.75 1 .1.26-.04.75.15.96.5.55 1.23.27 1 1.27-.12.52-.1.74-.07 1.28.04.36-.32.58-.18.95.35.9-.78 1.03-.6 1.82.1.35.53.3.64.7.14.5-.13.5-.46.78-.34.28-.5.66-.5 1.1 0 .42.53-.07.58.44.04.4.3.3.42.57.06.15-.1.5-.13.62-.14.48-.26.74-.76.93-.6.23-.06.2-.18.7-.14.6.4 1.26 1.08 1 1-.4.77.93.9 1.3"/><path d="M55.07 52.08c.8-.37-.32-.44-.54-1.18-.28-.94-1.22-.97-2.04-.96-.68.02-1.17 1.83-1.8.92-.16-.25-.74-.84-1-.87-.4-.02-.6.56-.9.22-.37-.4-.36.56-.47.7-.56.13-.53.2-.7.73-.1.3-.42.62-.73.35-.4-.35-.42.2-.8.3-.18.06-.93.04-1-.23.13-.55-1.07-.1-.77.54"/><path d="M45.66 54.54c-.13-.9-.77-.92-1.1-1.5-.32-.6-.43-.8-1.15-.77-.47.03-1.1.22-1.57.1-.4-.12-.9-.3-1.32-.2-.33.08-.77-.16-1.15-.17-.6-.02-.64-.05-.9-.62-.22-.47-.43-.37-.8-.67"/><path d="M46.98 38.97c.3 0 .57.06.85.1.3.02.6-.02.9-.02.07 0 .47 0 .55.02.6.14.42.5 1.07.05.08-.06.15-.1.24-.05l.4.16"/></g><g class="cities"><g class="city" data-id="3899"><circle class="city-border" cx="34.19" cy="44.28" r="1.15"/><circle class="city-body" cx="34.19" cy="44.28" r=".85"/></g><g class="city" data-id="3948"><circle class="city-border" cx="31.41" cy="61.2" r="1.15"/><circle class="city-body" cx="31.41" cy="61.2" r=".85"/></g><g class="city" data-id="3811"><circle class="city-border" cx="47.09" cy="54" r="1.8"/><circle class="city-body" cx="47.09" cy="54" r="1.47"/></g></g></svg>