<svg id="Layer_1" data-name="Layer 1" xmlns="http://www.w3.org/2000/svg" viewBox="0 0 212.4 42.54"><defs><style>.cls-1{fill:none;stroke:#bdd6e1;stroke-miterlimit:10;stroke-width:1.5px;}.cls-2{fill:#b6cad4;}.cls-3{fill:#405966;}</style></defs><title>myfinance-logo</title><path class="cls-1" d="M258.68,114.09" transform="translate(-199.8 -109.97)"/><path class="cls-2" d="M226.77,142a2,2,0,0,1-2.29-2.26,32.7,32.7,0,0,1,.46-4.63l0.63-4a41.11,41.11,0,0,0,.64-5.46,9.13,9.13,0,0,0-.16-2.09,2.12,2.12,0,0,0-.43-0.89,1.61,1.61,0,0,0-1.24-.44,3.94,3.94,0,0,0-1.64.36,8.47,8.47,0,0,0-1.63,1A15.39,15.39,0,0,0,218,127q-0.18,2.1-.6,4.88l-1.23,9.74h-3.8l1.08-8.54,0.29-1.83a40.89,40.89,0,0,0,.5-5.28,13.19,13.19,0,0,0-.14-2.37,2,2,0,0,0-.41-0.91,1.75,1.75,0,0,0-1.35-.44,4.54,4.54,0,0,0-1.8.36,8.29,8.29,0,0,0-1.73,1,15.87,15.87,0,0,0-3.3,3.43l-2,14.56H199.8l2.5-18.57-1.91-1.13,0.35-1.72,4.67-1,0.93,0.46L206,123.76a12.47,12.47,0,0,1,5.73-4.18,6.27,6.27,0,0,1,2.05-.37,5.43,5.43,0,0,1,1.73.25,3.2,3.2,0,0,1,1.28.81,5.88,5.88,0,0,1,1.29,3.7,12.4,12.4,0,0,1,5.51-4.39,6.16,6.16,0,0,1,2.05-.37,4.79,4.79,0,0,1,1.81.33,3.46,3.46,0,0,1,1.38,1,6.84,6.84,0,0,1,1.23,4.45,22.83,22.83,0,0,1-.39,3.76q-1.17,7.19-1.26,8.56a8.78,8.78,0,0,0,0,1.75,0.38,0.38,0,0,0,.35.39,3.93,3.93,0,0,0,2.1-1.27l0.6,1A6.84,6.84,0,0,1,226.77,142Z" transform="translate(-199.8 -109.97)"/><path class="cls-2" d="M242,138.43A77.24,77.24,0,0,0,251.17,118c0.37-1.24.83-2.53,1.24-3.86l-1.61,1.63h-2.54l5.9-5.86h1.13l3.64,5.82h-2.44l-0.91-1.73c-0.24,1.25-.47,2.52-0.78,3.58-6.77,23.7-18,32-18.15,32.08-2.87,1.88-4.85,2.78-8.35,2.78h0c-4.84-.35-6.59-2.74-6.66-2.84l0.59-1.26,0.13-.22,0.21,0.15a10,10,0,0,0,3.09,1.51,10.22,10.22,0,0,0,1.69.14c2.42,0,4.74-.93,7.28-2.94a31.22,31.22,0,0,0,4.88-5.16L236.31,123a3.35,3.35,0,0,0-.33-0.84,0.69,0.69,0,0,0-.62-0.24,2.62,2.62,0,0,0-1.4.83l-0.56-1.16a6.1,6.1,0,0,1,2.72-2.1,3.5,3.5,0,0,1,1.43-.31,3.19,3.19,0,0,1,1.19.19,1.83,1.83,0,0,1,.74.53,4.62,4.62,0,0,1,.66,1.93l1.64,14.09Z" transform="translate(-199.8 -109.97)"/><path class="cls-3" d="M261.09,118.42h14.55v3.42H264.8v6.75h9.59V132H264.8v9.69h-3.71V118.42Z" transform="translate(-199.8 -109.97)"/><path class="cls-3" d="M283.34,118.42h3.71V141.7h-3.71V118.42Z" transform="translate(-199.8 -109.97)"/><path class="cls-3" d="M296.07,118.42h3.42L310,134.24V118.42h3.61V141.7h-3.14l-10.78-16.36V141.7h-3.61V118.42Z" transform="translate(-199.8 -109.97)"/><path class="cls-3" d="M328.43,118.26H332l8.6,23.44h-3.87l-2-5.56h-9.23l-2,5.56h-3.71Zm5.15,14.62-3.44-9.66-3.47,9.66h6.91Z" transform="translate(-199.8 -109.97)"/><path class="cls-3" d="M382.46,142l-1,0a11.26,11.26,0,0,1-4.92-1.92,12.15,12.15,0,0,1-3.58-5.31c-1.07-4.52-.76-8.71,1.74-12.69a8.46,8.46,0,0,0,.58-0.7,17.92,17.92,0,0,1,1.38-1.28c0.51-.36,1.06-0.67,1.6-1a12.27,12.27,0,0,1,3.45-1,12.11,12.11,0,0,1,5.24.77,15.34,15.34,0,0,1,2.62,1.73l0.45,0.45c-0.75,1-1.53,1.91-2.27,2.88-2-1.83-4.09-2.82-6.81-2.17a6.77,6.77,0,0,0-2.49,1.56,4.88,4.88,0,0,0-.8,1.06l-0.19.26a11.74,11.74,0,0,0-.16,10.52,8,8,0,0,0,2.21,2.46,8.57,8.57,0,0,0,1.5.7,6.68,6.68,0,0,0,5.18-.86l0.22-.19a4.33,4.33,0,0,0,.51-0.35q0.47-.46,1-0.89l0.19,0.26c0.63,0.7,1.22,1.44,1.86,2.14l0.19,0.26-0.7.67a23.58,23.58,0,0,1-2.3,1.6q-0.41.18-.8,0.38A11.68,11.68,0,0,1,382.46,142Z" transform="translate(-199.8 -109.97)"/><path class="cls-3" d="M397.39,118.42H412v3.36H401.1v6.52h9.72v3.36H401.1v6.69h11.1v3.36H397.39V118.42Z" transform="translate(-199.8 -109.97)"/><path class="cls-3" d="M346.81,118.43h3.42l10.49,15.81V118.43h3.61v23.28H361.2l-10.78-16.36v16.36h-3.61V118.43Z" transform="translate(-199.8 -109.97)"/></svg>